<?xml version="1.0" standalone="no"?>
<!DOCTYPE svg PUBLIC "-//W3C//DTD SVG 20010904//EN"
 "http://www.w3.org/TR/2001/REC-SVG-20010904/DTD/svg10.dtd">
<svg version="1.0" xmlns="http://www.w3.org/2000/svg"
 width="300.000000pt" height="300.000000pt" viewBox="0 0 300.000000 300.000000"
 preserveAspectRatio="xMidYMid meet">
<metadata>
Created by potrace 1.14, written by Peter Selinger 2001-2017
</metadata>
<g transform="translate(0.000000,300.000000) scale(0.100000,-0.100000)"
fill="#000000" stroke="none">
<path d="M1530 2313 c-40 -28 -56 -45 -89 -97 -41 -66 -40 -101 4 -165 19 -28
35 -55 35 -61 0 -5 4 -10 9 -10 17 0 34 63 36 134 1 40 4 77 8 82 3 5 8 30 12
54 3 25 8 53 11 63 7 21 5 21 -26 0z"/>
<path d="M1224 2159 c-3 -5 -2 -9 3 -8 33 6 86 -37 113 -92 26 -50 25 -71 -3
-122 -13 -23 -23 -48 -22 -54 2 -7 3 -17 4 -21 0 -5 10 -18 21 -30 40 -43 130
-16 130 40 0 10 5 18 10 18 6 0 10 -9 10 -19 0 -31 33 -63 68 -66 46 -4 93 41
86 81 -3 16 -9 33 -15 39 -15 15 -10 65 12 104 25 45 79 84 119 85 17 1 30 4
30 9 0 7 -36 11 -80 7 -65 -5 -189 -117 -211 -191 -14 -46 -24 -50 -27 -11 -3
33 -44 118 -75 152 -40 46 -92 79 -130 84 -20 2 -39 0 -43 -5z"/>
<path d="M729 1879 c-50 -18 -58 -83 -20 -157 23 -45 78 -102 100 -103 9 0 24
-2 35 -4 10 -2 30 8 43 21 20 20 24 32 19 57 -8 42 -51 80 -84 74 -24 -5 -24
-4 -19 53 6 54 4 58 -16 64 -26 7 -25 7 -58 -5z"/>
<path d="M2162 1882 c-11 -8 -10 -61 3 -99 3 -8 -5 -13 -21 -13 -36 0 -62 -16
-77 -48 -25 -51 4 -102 60 -102 40 0 109 57 130 109 28 67 24 130 -11 153 -15
10 -68 10 -84 0z"/>
<path d="M2381 1823 c-24 -7 -47 -16 -50 -19 -7 -8 44 1 73 12 19 7 19 6 -2
-23 -12 -17 -22 -42 -22 -55 0 -16 8 -7 25 31 14 30 24 57 23 61 -2 3 -23 0
-47 -7z"/>
<path d="M530 1823 c0 -9 52 -113 56 -113 9 0 -9 56 -24 73 -21 24 -12 28 32
16 20 -6 42 -9 49 -6 6 2 -17 10 -51 19 -34 9 -62 14 -62 11z"/>
<path d="M666 1760 c3 -14 11 -32 16 -40 6 -10 7 -7 2 10 -3 14 -11 32 -16 40
-6 10 -7 7 -2 -10z"/>
<path d="M1482 1766 c7 -8 15 -12 17 -11 5 6 -10 25 -20 25 -5 0 -4 -6 3 -14z"/>
<path d="M2283 1755 c-3 -9 -3 -18 -1 -21 3 -3 8 4 11 16 6 23 -1 27 -10 5z"/>
<path d="M1465 1714 c-4 -16 -8 -35 -11 -41 -2 -7 0 -13 5 -13 5 0 11 17 13
38 6 45 1 55 -7 16z"/>
<path d="M1502 1688 c5 -29 12 -55 15 -58 8 -8 -9 94 -17 103 -4 5 -3 -15 2
-45z"/>
<path d="M2303 1712 c-7 -4 6 -8 29 -9 44 -2 47 1 8 10 -14 3 -31 3 -37 -1z"/>
<path d="M616 1701 c-4 -5 1 -8 9 -7 21 3 31 16 12 16 -9 0 -18 -4 -21 -9z"/>
<path d="M1181 1635 c-12 -30 -21 -63 -21 -73 0 -9 27 -52 60 -96 l59 -79 8
44 c4 24 7 61 6 81 -2 47 -38 130 -68 158 l-23 22 -21 -57z m57 -93 l19 -72
-45 44 -44 44 23 31 c12 17 24 29 26 28 2 -2 11 -36 21 -75z"/>
<path d="M1737 1658 c-41 -53 -59 -107 -59 -174 0 -106 10 -107 80 -8 l61 86
-20 51 c-33 84 -33 84 -62 45z m65 -88 c7 0 -2 -14 -20 -30 -18 -17 -42 -45
-53 -62 -12 -18 -19 -26 -16 -18 2 8 12 50 22 92 l19 77 18 -29 c10 -17 23
-30 30 -30z"/>
<path d="M2261 1676 c-19 -5 -51 -26 -73 -46 -64 -61 -45 -130 35 -130 39 0
77 27 77 54 0 24 16 27 61 11 24 -9 49 -13 56 -11 17 7 27 70 14 94 -20 38
-94 50 -170 28z"/>
<path d="M558 1660 c-33 -25 -39 -49 -22 -89 15 -36 18 -37 78 -12 l45 20 6
-30 c7 -30 47 -59 83 -59 30 0 72 38 72 65 0 87 -189 163 -262 105z"/>
<path d="M1448 1627 c-3 -19 -2 -25 4 -19 6 6 8 18 6 28 -3 14 -5 12 -10 -9z"/>
<path d="M855 1570 c5 -8 10 -19 10 -25 0 -15 69 -135 77 -135 4 0 -10 30 -33
66 -22 36 -39 68 -37 69 2 2 20 -11 40 -28 20 -18 44 -39 55 -47 10 -8 26 -21
36 -29 9 -7 17 -11 17 -8 0 3 -39 38 -87 78 -48 40 -83 67 -78 59z"/>
<path d="M2111 1563 c-5 -10 -13 -16 -16 -14 -4 1 -25 -12 -48 -30 -48 -40
-123 -111 -87 -83 13 10 29 22 35 27 5 4 30 24 54 45 24 20 48 36 52 35 5 -2
13 6 19 17 13 25 5 27 -9 3z"/>
<path d="M2078 1508 c-22 -34 -62 -115 -51 -103 14 14 76 125 70 125 -3 0 -11
-10 -19 -22z"/>
<path d="M1450 1501 c5 -11 15 -23 21 -27 6 -3 3 5 -6 20 -20 30 -30 35 -15 7z"/>
<path d="M1505 1489 c-4 -6 -5 -12 -2 -15 2 -3 7 2 10 11 7 17 1 20 -8 4z"/>
<path d="M1330 1443 c0 -4 12 -22 27 -38 14 -17 36 -41 47 -54 l21 -24 -33 5
c-39 6 -38 1 17 -81 l40 -59 -41 6 -41 5 25 -34 c41 -55 64 -94 51 -86 -7 5
-21 3 -30 -2 -10 -6 -16 -11 -13 -11 3 -1 20 -3 38 -6 32 -4 32 -3 27 29 -4
17 -13 43 -21 55 -15 23 -15 24 7 17 20 -7 21 -5 15 21 -4 16 -16 46 -26 67
-21 40 -20 43 11 27 23 -13 23 -13 4 40 -15 43 -15 43 4 26 15 -14 24 -15 40
-7 19 11 20 10 11 -14 -6 -15 -10 -33 -10 -41 0 -13 3 -13 22 0 30 22 46 20
22 -2 -25 -23 -40 -50 -49 -90 -7 -35 -4 -38 27 -21 20 11 20 10 -1 -18 -11
-15 -24 -43 -27 -62 -7 -32 -6 -34 15 -28 21 5 22 4 7 -12 -18 -20 -33 -81
-19 -81 5 0 21 25 36 55 26 54 25 60 -11 56 -13 -2 41 93 61 106 7 5 -3 10
-24 13 l-37 5 40 59 c28 42 36 61 27 67 -7 4 -19 4 -28 1 -8 -3 7 22 33 57
l48 62 -43 -5 c-48 -6 -93 -43 -104 -85 l-7 -26 -19 37 c-11 21 -30 45 -44 54
-28 18 -95 30 -95 17z"/>
<path d="M1158 1359 c-24 -32 -32 -91 -16 -121 10 -21 5 -22 -24 -7 -46 25
-115 14 -146 -24 -10 -11 0 -16 60 -27 l72 -13 -23 -19 c-13 -10 -22 -20 -20
-22 2 -2 31 -11 64 -20 94 -26 93 -26 63 -42 -16 -8 -28 -18 -28 -23 0 -4 28
-16 63 -25 56 -16 60 -19 44 -31 -21 -15 -19 -17 56 -52 26 -12 47 -18 47 -14
0 15 -35 39 -70 49 -22 7 -27 11 -14 11 11 1 24 4 27 7 9 9 -69 64 -90 65 -13
0 -11 3 6 10 14 6 21 13 15 18 -18 17 -89 51 -109 52 -13 0 -8 5 15 13 l35 13
-37 18 c-20 10 -35 22 -32 26 2 5 10 6 18 3 7 -3 17 5 23 18 11 23 11 23 23
-9 15 -40 23 -41 37 -5 11 27 11 26 12 -13 1 -22 10 -58 21 -80 17 -37 19 -38
25 -18 4 13 12 20 17 17 5 -3 7 -12 4 -19 -2 -7 5 -32 16 -55 21 -42 21 -42
34 -19 13 24 13 23 14 -11 1 -33 19 -70 34 -70 6 0 3 18 -16 93 -9 38 -10 38
-29 21 -18 -16 -19 -16 -20 2 0 35 -11 109 -16 114 -3 3 -15 -6 -26 -21 l-22
-25 -10 84 -10 83 -22 -21 -23 -21 0 71 c0 38 -4 70 -10 70 -5 0 -20 -14 -32
-31z"/>
<path d="M1770 1320 l0 -71 -22 21 c-12 11 -22 19 -24 17 -2 -3 -13 -115 -14
-141 0 -18 -2 -18 -25 4 -14 13 -27 22 -29 19 -4 -4 -15 -81 -15 -114 -1 -15
-4 -16 -13 -7 -20 20 -27 14 -43 -40 -17 -59 -18 -68 -7 -68 15 0 36 50 34 78
-2 25 -2 25 13 6 13 -16 16 -17 25 -4 15 23 32 89 25 100 -3 6 -4 10 0 10 3 0
10 -12 16 -27 l11 -28 19 40 c10 22 19 58 20 80 1 39 1 39 11 13 13 -37 23
-35 38 5 9 22 14 27 17 15 5 -18 30 -31 44 -22 5 3 9 1 9 -4 0 -4 -17 -16 -37
-26 -32 -15 -35 -19 -20 -27 9 -6 22 -7 27 -4 6 3 10 2 10 -3 0 -6 -11 -13
-25 -16 -13 -3 -40 -16 -60 -27 -35 -21 -38 -39 -7 -39 9 -1 2 -7 -16 -15 -18
-8 -44 -23 -58 -34 -24 -19 -24 -20 -4 -26 28 -9 25 -20 -6 -21 -14 -1 -36
-12 -49 -24 -22 -21 -24 -21 -56 -4 -41 21 -104 22 -144 3 -33 -16 -75 -82
-75 -119 0 -50 9 -53 144 -53 69 -1 128 2 132 6 16 16 13 72 -6 103 l-19 33
46 21 c25 11 49 20 52 20 4 0 12 5 19 12 9 9 7 14 -6 24 -15 11 -9 15 46 30
34 9 62 21 62 26 0 5 -11 13 -25 20 -13 6 -22 14 -20 18 3 4 36 16 75 25 38 9
70 21 70 25 0 4 -10 14 -22 22 -22 15 -19 16 50 28 62 10 71 14 61 27 -32 38
-101 49 -147 24 -30 -16 -33 -14 -22 15 15 40 12 68 -12 104 -38 56 -48 50
-48 -30z"/>
<path d="M2005 1379 c-4 -6 -5 -12 -2 -15 2 -3 7 2 10 11 7 17 1 20 -8 4z"/>
<path d="M1060 1375 c0 -5 5 -17 10 -25 5 -8 10 -10 10 -5 0 6 -5 17 -10 25
-5 8 -10 11 -10 5z"/>
<path d="M2716 1333 c8 -40 -9 -92 -44 -131 -36 -40 -75 -55 -116 -44 -50 14
-92 -9 -101 -58 -6 -33 20 -76 54 -88 25 -9 38 -7 78 13 100 51 179 203 151
289 -15 44 -30 57 -22 19z"/>
<path d="M234 1318 c-12 -54 -5 -97 25 -157 54 -105 142 -170 203 -149 50 18
70 85 36 125 -20 24 -49 31 -91 21 -34 -7 -45 -5 -72 13 -49 34 -78 83 -79
134 -1 53 -11 58 -22 13z"/>
<path d="M1020 1320 c8 -5 20 -10 25 -10 6 0 3 5 -5 10 -8 5 -19 10 -25 10 -5
0 -3 -5 5 -10z"/>
<path d="M1915 1310 c-3 -6 1 -7 9 -4 18 7 21 14 7 14 -6 0 -13 -4 -16 -10z"/>
<path d="M705 1262 c3 -15 15 -46 25 -68 l18 -42 97 -22 c53 -12 99 -20 102
-17 10 11 -59 98 -98 124 -21 14 -64 31 -95 39 l-56 13 7 -27z m103 -57 c26
-19 56 -41 67 -50 19 -15 19 -15 -5 -4 -14 7 -26 12 -27 11 -2 -1 -22 -2 -46
-2 l-42 0 0 40 c0 22 1 40 3 40 2 0 24 -16 50 -35z"/>
<path d="M2215 1275 c-67 -15 -132 -60 -167 -114 -15 -25 -26 -46 -24 -49 6
-5 166 28 188 39 16 9 62 114 56 129 -2 4 -25 2 -53 -5z m0 -75 l0 -40 -42 0
c-23 0 -54 -5 -70 -11 -18 -6 -24 -7 -18 0 13 13 119 89 125 90 4 1 6 -17 5
-39z"/>
<path d="M15 1133 c9 -21 26 -49 38 -62 12 -14 27 -30 32 -36 41 -45 101 -58
161 -33 22 9 50 20 63 25 23 9 23 9 -15 35 -22 15 -57 29 -79 32 -22 2 -75 21
-117 40 -42 20 -82 36 -87 36 -7 0 -6 -14 4 -37z"/>
<path d="M2860 1130 c-47 -22 -99 -40 -115 -40 -17 0 -48 -12 -69 -26 l-38
-26 58 -24 c33 -13 68 -26 79 -28 50 -9 136 57 176 136 10 21 19 40 19 43 0
11 -29 2 -110 -35z"/>
<path d="M888 1059 c-5 -12 -5 -26 1 -76 1 -14 59 -73 72 -73 5 0 9 7 9 15 0
14 3 14 25 -1 35 -23 48 -15 30 19 -7 15 -10 27 -5 27 4 0 10 -6 13 -14 7 -18
66 -62 95 -71 22 -6 23 -5 17 17 -7 22 -7 22 11 7 19 -16 78 -49 89 -49 3 0 5
7 5 15 0 13 6 11 29 -6 16 -11 37 -19 47 -17 14 2 6 12 -34 41 -29 20 -54 37
-57 37 -3 0 -5 -9 -5 -20 0 -11 -2 -20 -4 -20 -3 0 -26 20 -52 45 -50 47 -66
45 -58 -4 5 -23 -2 -19 -53 32 -32 31 -62 57 -66 57 -4 0 -7 -12 -7 -27 0 -27
-2 -26 -48 26 -34 39 -50 50 -54 40z"/>
<path d="M2029 1019 c-27 -32 -45 -46 -47 -38 -2 8 -6 20 -8 28 -3 10 -23 -3
-63 -43 l-58 -57 -1 31 c0 18 -2 34 -5 36 -2 2 -25 -16 -50 -41 -44 -41 -65
-57 -53 -37 2 4 1 14 -4 22 -6 10 -19 5 -59 -24 -28 -21 -51 -40 -51 -42 0
-16 47 1 71 26 22 22 29 25 24 11 -3 -11 -2 -22 3 -25 12 -7 64 21 86 47 l19
22 -5 -27 c-3 -16 -1 -28 5 -28 17 0 76 41 98 68 18 22 21 23 17 7 -3 -11 -9
-29 -14 -40 -7 -18 -6 -18 30 3 44 26 53 28 36 7 -10 -12 -10 -15 1 -15 35 1
89 68 89 110 0 54 -15 53 -61 -1z"/>
<path d="M1420 1050 c0 -12 38 -90 44 -90 7 0 -5 64 -15 83 -11 19 -29 23 -29
7z"/>
<path d="M267 986 c-103 -35 -177 -104 -177 -166 0 -23 1 -22 19 10 22 42 90
79 145 80 30 0 47 -7 77 -35 43 -38 72 -44 107 -19 49 34 48 97 -2 129 -38 25
-97 25 -169 1z"/>
<path d="M2564 999 c-68 -19 -89 -93 -39 -136 37 -32 69 -29 114 12 29 27 47
35 75 35 64 0 125 -36 163 -96 10 -16 10 -14 3 12 -18 69 -59 111 -149 150
-62 28 -120 35 -167 23z"/>
<path d="M690 990 c0 -5 5 -10 11 -10 5 0 7 5 4 10 -3 6 -8 10 -11 10 -2 0 -4
-4 -4 -10z"/>
<path d="M526 978 c3 -4 11 -5 19 -1 21 7 19 12 -4 10 -11 0 -18 -5 -15 -9z"/>
<path d="M593 983 c15 -2 39 -2 55 0 15 2 2 4 -28 4 -30 0 -43 -2 -27 -4z"/>
<path d="M2313 983 c15 -2 39 -2 55 0 15 2 2 4 -28 4 -30 0 -43 -2 -27 -4z"/>
<path d="M2411 980 c10 -7 49 -2 49 5 0 2 -14 3 -31 3 -17 -1 -25 -4 -18 -8z"/>
<path d="M822 955 c15 -16 29 -27 31 -24 3 2 -10 15 -27 28 l-31 24 27 -28z"/>
<path d="M2135 954 c-18 -16 -22 -22 -9 -15 18 9 53 42 43 41 -2 -1 -17 -12
-34 -26z"/>
<path d="M558 963 c7 -3 16 -2 19 1 4 3 -2 6 -13 5 -11 0 -14 -3 -6 -6z"/>
<path d="M2327 943 c-37 -14 -66 -27 -64 -29 4 -4 138 44 146 52 9 9 -17 2
-82 -23z"/>
<path d="M625 941 c22 -10 51 -21 65 -25 14 -3 7 2 -15 13 -22 10 -51 21 -65
25 -14 3 -7 -2 15 -13z"/>
<path d="M786 901 c-4 -5 3 -7 14 -4 23 6 26 13 6 13 -8 0 -17 -4 -20 -9z"/>
<path d="M960 903 c-76 -22 -120 -63 -120 -113 0 -21 2 -21 64 13 l64 36 -8
-30 c-5 -16 -5 -29 0 -29 5 0 38 14 73 30 77 36 81 36 67 9 -6 -11 -9 -25 -7
-32 2 -7 13 7 25 29 12 23 19 44 16 47 -3 3 -35 -3 -70 -13 -63 -17 -64 -17
-48 1 14 16 15 19 2 24 -8 3 -27 1 -41 -4 -30 -12 -37 2 -10 18 20 11 15 20
-7 14z"/>
<path d="M2011 881 l24 -20 -40 9 c-57 13 -59 13 -42 -14 l16 -24 -46 14 c-47
14 -93 18 -93 8 0 -3 12 -22 26 -42 l26 -37 -7 33 c-4 17 -5 32 -3 32 2 0 26
-11 54 -24 27 -13 59 -26 71 -30 20 -7 21 -5 13 24 l-9 30 65 -36 c61 -34 64
-35 64 -14 0 52 -63 110 -120 110 l-22 0 23 -19z"/>
<path d="M1354 743 c-19 -4 -76 -53 -62 -53 4 0 27 9 53 20 57 24 56 24 49 3
-5 -15 -3 -15 10 1 28 35 15 42 -50 29z"/>
<path d="M1546 742 c-2 -4 2 -18 10 -32 13 -25 13 -25 14 -2 l0 22 51 -26 c52
-26 64 -15 18 18 -27 19 -85 32 -93 20z"/>
<path d="M1443 723 c4 -3 1 -13 -6 -21 -10 -13 -8 -14 13 -7 29 9 36 9 70 -1
22 -6 23 -5 13 8 -7 8 -10 18 -6 21 3 4 -15 7 -42 7 -27 0 -45 -3 -42 -7z"/>
</g>
</svg>
