<?xml version="1.0" standalone="no"?>
<!DOCTYPE svg PUBLIC "-//W3C//DTD SVG 20010904//EN"
 "http://www.w3.org/TR/2001/REC-SVG-20010904/DTD/svg10.dtd">
<svg version="1.0" xmlns="http://www.w3.org/2000/svg"
 width="300.000000pt" height="300.000000pt" viewBox="0 0 300.000000 300.000000"
 preserveAspectRatio="xMidYMid meet">
<metadata>
Created by potrace 1.14, written by Peter Selinger 2001-2017
</metadata>
<g transform="translate(0.000000,300.000000) scale(0.100000,-0.100000)"
fill="#000000" stroke="none">
<path d="M1494 2788 c-88 -81 -109 -173 -55 -238 15 -19 31 -45 35 -57 4 -13
11 -23 15 -23 18 0 41 75 42 133 0 34 8 99 18 145 21 98 14 104 -55 40z"/>
<path d="M1190 2660 c0 -5 12 -10 27 -10 60 0 133 -83 133 -151 0 -19 -9 -45
-20 -59 -30 -38 -26 -83 11 -114 41 -35 73 -33 112 5 19 19 33 27 35 20 17
-52 97 -67 137 -26 29 28 32 61 9 109 -16 32 -16 36 5 80 29 58 70 88 132 94
58 5 55 18 -7 28 -57 8 -115 -13 -174 -63 -49 -42 -100 -117 -101 -147 0 -12
-6 -4 -13 19 -29 90 -102 186 -163 211 -38 16 -123 19 -123 4z"/>
<path d="M2166 2393 c-16 -4 -18 -12 -14 -58 l5 -53 -33 -7 c-70 -13 -99 -104
-47 -145 19 -15 36 -20 54 -16 23 4 26 2 22 -15 -3 -12 -9 -16 -12 -11 -3 6
-58 -32 -121 -84 -111 -91 -115 -96 -129 -150 -7 -30 -11 -57 -8 -61 3 -3 29
3 57 13 43 15 56 26 77 64 14 25 46 80 71 123 l44 78 17 -33 c22 -45 70 -58
118 -33 22 12 36 28 40 46 l5 27 45 -19 c59 -25 62 -25 79 17 18 42 12 66 -23
94 -29 22 -112 28 -158 10 -23 -9 -25 -8 -17 7 8 13 23 16 76 14 l67 -2 30 66
c17 37 28 69 25 72 -3 3 -35 -3 -72 -13 -47 -12 -68 -23 -74 -38 -7 -16 -9
-10 -9 26 -1 68 -45 99 -115 81z m215 -128 c-15 -42 -18 -45 -53 -45 -36 0
-37 0 -28 31 5 18 11 33 12 34 4 2 70 23 79 24 4 1 -1 -19 -10 -44z m-325
-283 c-13 -20 -35 -60 -49 -88 -20 -40 -34 -54 -65 -66 l-39 -15 9 41 c5 22
12 44 16 48 12 11 147 118 150 118 1 0 -8 -17 -22 -38z"/>
<path d="M702 2367 c-14 -15 -22 -36 -22 -58 0 -20 -3 -29 -8 -22 -9 15 -152
55 -152 43 0 -17 60 -134 72 -141 10 -7 8 -9 -5 -9 -10 0 -29 -11 -42 -25 -30
-29 -33 -73 -7 -105 l17 -21 48 20 c59 25 57 25 57 3 0 -32 37 -62 76 -62 69
0 102 40 79 95 l-12 31 34 -4 c46 -6 73 20 73 68 0 52 -32 90 -74 90 l-32 0 6
53 c8 59 3 67 -51 67 -24 0 -42 -7 -57 -23z m-72 -81 c18 -4 28 -15 36 -41
l11 -35 -43 0 c-35 0 -44 4 -44 18 0 9 -9 31 -19 48 l-19 32 26 -9 c15 -5 38
-11 52 -13z m95 -102 c10 -15 12 -23 4 -19 -7 5 -26 12 -43 16 -24 5 -26 7 -8
8 12 1 22 6 22 11 0 16 7 12 25 -16z"/>
<path d="M1470 2303 c-1 -15 -11 -83 -23 -149 l-23 -122 26 -46 c14 -25 30
-46 35 -46 14 0 66 97 60 113 -3 7 -16 71 -28 142 -13 73 -28 130 -35 133 -7
2 -12 -7 -12 -25z m50 -236 c8 -23 5 -35 -13 -62 l-21 -33 -22 31 c-21 31 -21
31 -3 112 10 44 19 94 20 110 0 17 7 -6 15 -50 8 -44 19 -93 24 -108z"/>
<path d="M1190 2188 c0 -7 -11 -39 -24 -71 l-24 -59 65 -84 c35 -46 68 -84 73
-84 22 0 27 133 7 187 -7 17 -27 52 -44 77 -32 45 -53 58 -53 34z m45 -156
l13 -43 -37 33 -37 33 20 26 c17 20 22 22 25 10 2 -9 9 -35 16 -59z"/>
<path d="M1732 2163 c-51 -66 -73 -157 -56 -242 4 -17 12 -31 18 -30 6 0 39
38 73 84 l61 84 -24 58 c-13 32 -24 64 -24 71 0 22 -18 13 -48 -25z m34 -134
c-17 -15 -32 -26 -34 -25 -1 2 3 26 9 53 l12 51 22 -26 22 -25 -31 -28z"/>
<path d="M830 2091 c0 -6 17 -39 38 -73 21 -35 54 -92 74 -128 33 -58 42 -67
85 -83 26 -9 52 -17 56 -17 8 0 2 60 -9 101 -2 8 -45 49 -95 90 -50 41 -104
85 -120 98 -16 13 -29 19 -29 12z m158 -145 c39 -31 64 -59 68 -75 13 -64 15
-60 -28 -43 -31 12 -45 26 -65 66 -14 28 -37 68 -50 90 -28 44 -28 43 75 -38z"/>
<path d="M1320 1944 c0 -3 20 -29 45 -58 l44 -52 -29 4 c-17 2 -30 1 -30 -2 0
-4 18 -34 40 -66 22 -32 40 -61 40 -63 0 -2 -13 -2 -30 1 -40 6 -39 -9 5 -69
31 -44 33 -49 15 -49 -26 0 -25 -10 6 -72 25 -49 25 -52 9 -65 -25 -18 -31
-11 -45 57 -11 52 -16 61 -32 57 -24 -7 -26 -1 -29 61 -3 54 -15 66 -39 37
-19 -22 -30 -2 -30 55 0 58 -12 79 -34 61 -14 -12 -16 -8 -18 30 -1 24 -1 54
0 67 1 33 -23 27 -53 -13 -23 -29 -26 -43 -23 -85 2 -42 0 -49 -12 -43 -40 17
-90 14 -129 -8 -60 -34 -55 -41 42 -55 47 -6 60 -17 32 -28 -20 -7 -19 -23 3
-30 9 -3 43 -12 76 -21 54 -16 57 -18 35 -29 -41 -20 -33 -34 31 -52 43 -12
58 -20 51 -27 -19 -19 -12 -27 48 -53 55 -24 58 -27 47 -49 l-10 -23 -55 39
c-54 39 -71 42 -71 11 0 -11 -16 -1 -48 31 -50 49 -62 51 -62 8 0 -24 -4 -22
-55 29 -30 29 -56 52 -58 49 -2 -2 -9 -12 -14 -23 -9 -16 -14 -13 -48 28 -20
25 -41 46 -46 46 -5 0 -9 -22 -9 -50 0 -41 5 -55 30 -83 34 -39 36 -47 16 -47
-26 0 -76 -51 -87 -91 -7 -21 -10 -41 -7 -44 3 -3 33 10 66 29 l61 34 -6 -30
c-7 -35 -13 -36 80 6 l59 26 -7 -30 c-4 -16 -3 -30 2 -30 15 0 75 108 68 120
-4 7 7 4 24 -4 17 -9 43 -21 57 -26 23 -9 25 -8 20 7 -6 15 -5 16 11 1 10 -9
27 -18 38 -20 17 -3 26 -19 41 -75 3 -10 40 -13 144 -13 l140 0 0 29 c0 30 22
61 42 61 6 0 20 8 30 17 18 16 18 16 12 0 -5 -15 -3 -16 20 -7 14 5 40 17 57
26 17 8 28 11 24 5 -7 -13 52 -121 67 -121 6 0 7 12 3 30 l-7 30 59 -26 c32
-14 64 -28 72 -32 10 -4 13 2 9 25 l-4 30 59 -34 c32 -18 61 -33 63 -33 2 0 4
11 4 24 0 32 -39 87 -75 106 -17 8 -32 16 -34 17 -2 1 10 18 28 38 26 30 31
44 31 85 0 28 -4 50 -9 50 -5 0 -26 -21 -46 -46 -34 -41 -39 -44 -48 -28 -5
11 -12 21 -14 23 -2 3 -28 -20 -58 -49 -51 -51 -55 -53 -55 -29 0 43 -12 41
-62 -8 -32 -32 -48 -42 -48 -31 0 31 -17 28 -71 -11 l-55 -39 -10 23 c-11 22
-8 25 47 49 60 26 67 34 48 53 -7 7 8 15 50 27 34 9 61 21 61 26 0 5 -12 16
-27 23 l-27 15 60 16 c32 10 67 19 77 22 21 7 22 23 2 30 -28 11 -15 22 33 28
96 14 101 21 41 55 -40 23 -89 25 -131 7 -15 -7 -16 -4 -8 23 11 38 -2 86 -32
118 -37 40 -48 30 -48 -43 0 -58 -2 -65 -15 -54 -20 17 -26 10 -31 -42 -3 -24
-7 -54 -10 -67 -5 -22 -6 -22 -23 -7 -33 30 -41 20 -41 -51 0 -52 -3 -64 -12
-55 -23 23 -35 11 -48 -48 -13 -61 -26 -72 -58 -51 -11 7 -9 18 12 59 31 62
32 72 6 72 -18 0 -16 5 15 49 43 59 44 71 5 71 l-29 0 39 57 c22 31 40 60 40
65 0 4 -12 8 -26 8 -25 0 -25 0 15 48 23 27 41 51 41 55 0 4 -18 7 -41 7 -33
0 -47 -6 -75 -34 -19 -19 -34 -42 -34 -52 0 -13 -6 -7 -17 15 -21 43 -67 71
-115 71 -21 0 -38 -3 -38 -6z m180 -130 c-17 -43 -13 -56 11 -44 20 11 20 11
3 -15 -9 -14 -20 -40 -24 -58 l-7 -32 -11 30 c-7 17 -18 42 -26 58 -14 25 -5
40 9 17 9 -14 28 -12 22 3 -18 50 -19 60 -3 54 8 -3 18 -2 21 3 12 19 14 10 5
-16z m-306 -138 c3 -8 7 -7 14 2 6 9 12 2 20 -25 6 -21 18 -47 27 -58 13 -17
16 -18 25 -5 8 13 10 13 10 -2 0 -30 33 -89 47 -84 7 3 13 -1 13 -8 0 -7 9
-25 21 -40 21 -27 11 -38 -11 -11 -7 8 -27 19 -44 24 -27 8 -28 9 -7 10 l24 1
-22 24 c-13 14 -37 31 -55 40 -21 10 -25 16 -13 16 31 0 13 23 -41 51 -43 23
-47 28 -29 33 25 6 18 17 -28 40 -27 14 -28 16 -7 16 12 0 22 6 22 13 1 12 24
-14 34 -37z m639 24 c18 0 15 -4 -13 -18 -41 -22 -50 -42 -20 -42 15 0 6 -9
-31 -28 -55 -28 -74 -52 -42 -52 12 0 8 -6 -13 -16 -18 -9 -42 -26 -55 -40
l-22 -24 24 -1 c21 -1 20 -2 -7 -10 -17 -5 -37 -16 -44 -24 -22 -27 -32 -16
-11 11 12 15 21 33 21 40 0 7 6 11 13 8 14 -5 47 54 47 84 0 14 2 14 9 3 14
-23 36 1 52 56 7 26 14 42 17 35 6 -20 22 -13 33 16 7 15 13 22 16 15 3 -7 14
-13 26 -13z m-329 -60 c-4 -8 -10 -28 -14 -45 -6 -26 -8 -28 -14 -10 -4 11
-12 30 -17 43 -5 13 -9 24 -9 25 0 1 14 2 30 2 23 0 29 -4 24 -15z m-8 -107
c-3 -8 -6 -26 -6 -39 0 -13 -4 -24 -10 -24 -5 0 -10 12 -10 27 0 14 -7 34 -15
43 -14 15 -12 16 16 12 21 -3 29 -9 25 -19z m-388 -146 l34 -14 -58 -11 c-31
-7 -60 -10 -62 -7 -3 3 0 5 6 5 7 0 12 6 12 14 0 10 -9 12 -42 6 -37 -7 -40
-6 -24 5 11 8 15 19 10 26 -5 9 -2 10 12 5 10 -5 27 -11 38 -14 16 -4 17 -2 6
19 l-13 24 24 -22 c13 -12 39 -28 57 -36z m821 32 c-12 -23 -4 -24 45 -3 14 5
17 4 12 -5 -5 -7 -1 -18 10 -26 16 -11 13 -12 -24 -5 -33 6 -42 4 -42 -6 0 -8
5 -14 12 -14 6 0 9 -2 6 -5 -2 -3 -30 0 -61 6 l-57 12 40 19 c21 11 44 26 51
34 17 21 21 17 8 -7z"/>
<path d="M234 1835 c-20 -54 -15 -106 17 -172 26 -53 93 -131 124 -144 15 -6
10 -8 -22 -8 -80 -2 -210 -66 -247 -123 -20 -31 -32 -108 -17 -108 6 0 11 8
11 18 0 51 80 102 159 102 42 0 53 -4 66 -24 9 -14 30 -29 46 -35 81 -28 145
74 85 134 l-24 23 24 6 c65 17 86 95 38 143 -23 23 -30 25 -80 18 -46 -5 -58
-3 -84 15 -47 34 -74 94 -67 152 8 60 -6 62 -29 3z"/>
<path d="M2707 1832 c6 -56 -19 -116 -64 -152 -24 -19 -35 -21 -85 -15 -52 6
-59 5 -83 -19 -46 -46 -24 -126 39 -142 l24 -6 -24 -23 c-59 -59 6 -164 83
-134 14 5 37 21 49 34 55 60 224 1 224 -77 0 -10 5 -18 11 -18 16 0 5 74 -15
106 -39 59 -168 123 -249 125 -32 0 -37 2 -22 8 34 14 105 100 131 157 28 64
31 120 7 169 -23 49 -33 44 -26 -13z"/>
<path d="M690 1786 c0 -3 11 -36 25 -73 l26 -69 106 -22 c58 -12 108 -20 111
-17 2 2 -10 26 -27 53 -34 54 -88 96 -148 118 -37 13 -93 19 -93 10z m167
-121 c2 -1 -19 -1 -46 -1 -49 1 -49 1 -53 37 l-3 36 50 -36 c27 -19 51 -35 52
-36z"/>
<path d="M2175 1770 c-53 -21 -127 -85 -152 -133 -8 -16 -13 -31 -10 -33 2 -2
51 6 110 18 l105 22 26 66 c14 36 26 69 26 73 0 13 -54 6 -105 -13z m35 -72
c0 -33 0 -33 -50 -34 l-49 0 47 32 c26 18 48 33 50 33 1 1 2 -14 2 -31z"/>
<path d="M0 1665 c0 -43 77 -142 132 -171 37 -19 72 -18 118 6 22 11 51 20 65
20 14 0 25 4 25 9 0 17 -77 61 -125 70 -28 5 -85 26 -128 45 -90 41 -87 41
-87 21z"/>
<path d="M2880 1644 c-41 -20 -97 -40 -125 -45 -48 -9 -125 -53 -125 -70 0 -5
11 -9 25 -9 14 0 43 -9 65 -20 69 -35 115 -23 181 47 31 32 79 110 79 128 0
11 -28 2 -100 -31z"/>
<path d="M490 1492 c0 -5 63 -32 141 -61 l141 -52 46 17 c26 10 51 20 55 24 4
4 -13 23 -39 43 l-47 37 -149 0 c-81 0 -148 -4 -148 -8z m324 -38 c32 -28 32
-27 -11 -42 -29 -9 -45 -6 -135 28 l-103 39 110 0 c103 0 112 -1 139 -25z"/>
<path d="M2137 1464 c-26 -20 -47 -39 -47 -43 0 -3 26 -14 57 -23 l58 -17 133
50 c73 27 137 49 142 49 6 0 10 5 10 10 0 6 -58 10 -153 10 l-154 0 -46 -36z
m165 -24 c-90 -34 -106 -37 -135 -28 -43 15 -43 14 -11 42 27 24 36 25 139 25
l110 0 -103 -39z"/>
<path d="M1308 1221 c-43 -39 -29 -50 27 -23 54 26 56 26 49 7 -4 -8 -1 -15 5
-15 7 0 14 7 17 15 4 8 10 13 15 10 4 -3 5 -13 2 -21 -5 -13 -2 -15 18 -8 30
10 58 10 87 0 22 -7 23 -6 18 16 -6 19 -5 20 4 6 13 -22 34 -24 26 -3 -7 20
-4 19 54 -10 36 -18 50 -22 50 -12 0 29 -48 60 -101 65 -29 3 -50 1 -46 -4 3
-5 -19 -9 -49 -9 -30 0 -54 3 -54 8 0 4 -20 7 -45 7 -35 0 -52 -6 -77 -29z"/>
<path d="M151 1133 c-7 -21 -15 -44 -17 -50 -3 -7 -1 -13 5 -13 15 0 63 78 56
90 -13 21 -32 8 -44 -27z"/>
<path d="M84 1046 c-43 -19 -64 -53 -64 -102 0 -55 33 -95 113 -135 102 -52
130 -96 87 -139 -22 -22 -84 -27 -123 -9 -28 12 -57 58 -57 88 0 12 -6 21 -15
21 -12 0 -15 -16 -15 -85 0 -84 9 -104 30 -65 10 19 12 19 43 3 69 -35 153
-16 194 46 50 75 18 140 -98 201 -89 46 -102 59 -97 97 5 40 45 61 87 43 33
-13 61 -54 61 -90 0 -11 7 -20 15 -20 12 0 15 16 15 80 0 64 -3 80 -15 80 -8
0 -15 -7 -15 -15 0 -18 -1 -18 -36 0 -35 18 -69 18 -110 1z"/>
<path d="M1765 1051 c-122 -32 -206 -158 -176 -266 42 -153 208 -224 351 -150
62 32 120 127 120 196 0 76 -57 162 -133 200 -44 23 -118 32 -162 20z m125
-53 c107 -55 121 -233 24 -318 -30 -26 -42 -30 -94 -30 -49 0 -64 4 -90 26
-47 40 -64 80 -64 154 0 84 29 141 88 170 53 26 81 25 136 -2z"/>
<path d="M2741 1033 c-7 -16 -45 -102 -83 -193 -39 -91 -75 -170 -80 -177 -5
-6 -23 -15 -39 -18 -57 -13 -27 -25 61 -25 89 0 118 12 60 25 -35 8 -36 14
-14 72 l17 43 82 0 82 0 17 -43 c22 -58 21 -64 -14 -72 -60 -13 -27 -25 70
-25 101 0 125 9 70 29 -16 5 -30 12 -30 13 0 14 -171 393 -178 396 -5 1 -14
-10 -21 -25z m38 -166 l30 -67 -64 0 -63 0 31 70 c17 38 32 68 33 67 2 -1 16
-33 33 -70z"/>
<path d="M350 1036 c0 -7 14 -16 30 -19 l30 -6 0 -177 0 -176 -30 -11 c-16 -6
-30 -15 -30 -19 0 -4 86 -8 190 -8 l190 0 0 50 c0 58 -19 68 -37 20 l-11 -30
-91 0 c-79 0 -92 2 -101 19 -11 21 -14 271 -4 309 4 15 17 25 35 29 16 3 29
12 29 19 0 11 -22 14 -100 14 -78 0 -100 -3 -100 -14z"/>
<path d="M750 1035 c0 -8 8 -15 18 -15 38 0 42 -18 42 -193 l0 -169 -30 -11
c-16 -6 -30 -15 -30 -19 0 -4 79 -8 175 -8 l175 0 0 51 c0 36 -4 49 -12 47 -7
-3 -15 -13 -17 -24 -5 -29 -19 -34 -102 -34 -89 0 -89 0 -89 96 l0 65 48 -3
c43 -3 47 -5 50 -30 2 -16 9 -28 18 -28 11 0 14 18 14 85 0 69 -3 85 -15 85
-9 0 -15 -9 -15 -25 0 -28 -25 -45 -69 -45 l-31 0 0 75 0 75 58 0 c67 0 106
-17 110 -48 2 -12 10 -22 18 -22 10 0 14 14 14 55 l0 55 -165 0 c-140 0 -165
-2 -165 -15z"/>
<path d="M1150 1036 c0 -7 13 -16 29 -19 37 -8 41 -24 41 -178 0 -165 -4 -186
-41 -194 -66 -15 -21 -25 106 -25 142 0 171 7 208 48 42 46 27 132 -28 168
-24 16 -24 16 -5 37 29 31 27 101 -4 132 -33 33 -86 45 -203 45 -81 0 -103 -3
-103 -14z m234 -47 c19 -15 26 -30 26 -53 0 -42 -26 -66 -78 -73 l-40 -5 -4
76 -3 76 36 0 c22 0 47 -8 63 -21z m40 -191 c9 -12 16 -41 16 -64 0 -58 -23
-76 -91 -72 l-54 3 -3 78 -3 77 60 0 c51 0 62 -3 75 -22z"/>
<path d="M2100 1036 c0 -9 8 -16 19 -16 45 0 51 -22 51 -188 0 -86 -4 -162 -8
-169 -4 -6 -20 -15 -35 -18 -61 -16 -19 -25 111 -25 152 0 194 12 243 66 40
44 52 86 47 162 -5 89 -32 132 -108 170 -49 24 -68 27 -187 30 -117 4 -133 2
-133 -12z m290 -54 c40 -29 60 -79 60 -150 0 -120 -48 -175 -150 -170 l-55 3
-3 174 -2 174 62 -7 c36 -3 74 -14 88 -24z"/>
<path d="M920 420 c0 -16 5 -30 10 -30 6 0 10 7 10 15 0 11 11 15 40 15 l40 0
-51 -81 c-28 -45 -53 -87 -56 -95 -4 -12 18 -14 126 -14 81 0 131 4 131 10 0
6 -7 10 -15 10 -16 0 -19 9 -9 34 8 22 80 22 88 0 10 -25 7 -34 -9 -34 -8 0
-15 -4 -15 -10 0 -5 25 -10 55 -10 30 0 55 5 55 10 0 6 -6 10 -14 10 -8 0 -31
42 -56 100 -23 56 -47 99 -53 97 -6 -2 -30 -46 -52 -97 -22 -51 -47 -96 -54
-98 -9 -3 -11 2 -6 17 5 15 2 21 -9 21 -9 0 -16 -7 -16 -15 0 -11 -12 -15 -46
-15 -33 0 -43 3 -38 13 4 6 29 47 56 89 26 43 48 80 48 83 0 3 -36 5 -80 5
l-80 0 0 -30z m290 -82 c0 -4 -9 -8 -21 -8 -15 0 -19 4 -15 16 3 9 6 21 6 27
1 13 30 -22 30 -35z"/>
<path d="M1310 440 c0 -5 7 -10 15 -10 13 0 15 -21 15 -125 0 -116 -1 -125
-19 -125 -10 0 -21 7 -25 15 -8 22 -36 19 -36 -4 0 -22 19 -31 64 -31 51 0 56
12 56 143 0 110 1 119 20 124 39 10 19 23 -35 23 -30 0 -55 -4 -55 -10z"/>
<path d="M1470 350 c-24 -55 -49 -100 -57 -100 -7 0 -13 -4 -13 -10 0 -5 20
-10 45 -10 25 0 45 5 45 10 0 6 -7 10 -16 10 -11 0 -14 5 -10 16 3 9 6 20 6
25 0 5 20 9 45 9 25 0 45 -4 45 -9 0 -5 3 -16 6 -25 4 -11 1 -16 -10 -16 -9 0
-16 -4 -16 -10 0 -6 52 -10 135 -10 l135 0 0 30 c0 32 -14 40 -24 15 -4 -10
-20 -15 -50 -15 l-46 0 55 85 c30 47 55 89 55 95 0 6 -33 10 -80 10 l-80 0 0
-30 c0 -32 14 -40 24 -15 3 9 19 15 41 15 19 0 35 -2 35 -4 0 -15 -105 -166
-114 -163 -5 2 -29 46 -52 97 -22 52 -45 95 -51 97 -5 2 -29 -42 -53 -97z m62
-2 c7 -15 4 -18 -16 -18 -24 0 -24 2 -14 32 7 20 13 27 16 18 3 -8 9 -23 14
-32z"/>
<path d="M1830 441 c0 -6 7 -11 15 -11 12 0 15 -17 15 -90 0 -73 -3 -90 -15
-90 -8 0 -15 -5 -15 -11 0 -8 26 -10 80 -7 71 3 83 6 107 31 23 23 28 36 28
77 0 41 -5 54 -28 77 -24 25 -36 28 -107 31 -54 3 -80 1 -80 -7z m154 -43 c21
-30 20 -96 -1 -120 -9 -10 -30 -18 -50 -18 l-33 0 0 80 0 80 34 0 c25 0 39 -7
50 -22z"/>
</g>
</svg>
